# xmcd
#
# Track frame offsets: 
#        150
#        19421
#        38268
#        55764
#        77342
#        98289
#        119467
#        135672
#        153313
#        168039
#        183631
#        203017
#
# Disc length: 3028 seconds
#
# Revision: 2
# Processed by: cddbd v1.5.2PL0 Copyright (c) Steve Scherf et al.
# Submitted via: ExactAudioCopyFreeDBPlugin 1.0
#
DISCID=840bd20c
DTITLE=Robin Thicke - Something Else
DYEAR=2008
DGENRE=R&B
TTITLE0=You're My Baby
TTITLE1=Sidestep
TTITLE2=Magic
TTITLE3=Ms. Harmony
TTITLE4=Dreamworld
TTITLE5=Loverman
TTITLE6=Hard On My Love
TTITLE7=The Sweetest Love
TTITLE8=Something Else
TTITLE9=Shadow of Doubt
TTITLE10=Cry No More
TTITLE11=Tie My Hands (feat. Lil Wayne)
EXTD=
EXTT0=
EXTT1=
EXTT2=
EXTT3=
EXTT4=
EXTT5=
EXTT6=
EXTT7=
EXTT8=
EXTT9=
EXTT10=
EXTT11=
PLAYORDER=
